<mxfile host="app.diagrams.net" modified="2021-05-29T13:49:00.360Z" agent="5.0 (Macintosh; Intel Mac OS X 10_15_7) AppleWebKit/537.36 (KHTML, like Gecko) Chrome/90.0.4430.212 Safari/537.36" etag="eN0T39hQw7JZ5FOTZbb4" version="14.7.0" type="github">
  <diagram id="A1tCCWJj5cQhw7X3FNSQ" name="Page-1">
    <mxGraphModel dx="895" dy="527" grid="1" gridSize="10" guides="1" tooltips="1" connect="1" arrows="1" fold="1" page="1" pageScale="1" pageWidth="827" pageHeight="1169" math="0" shadow="0">
      <root>
        <mxCell id="0" />
        <mxCell id="1" parent="0" />
        <mxCell id="flg8Zj_wZAHKv5EspBRr-67" value="" style="rounded=0;whiteSpace=wrap;html=1;fillColor=#dae8fc;strokeColor=#6c8ebf;" vertex="1" parent="1">
          <mxGeometry x="120" y="140" width="510" height="340" as="geometry" />
        </mxCell>
        <mxCell id="flg8Zj_wZAHKv5EspBRr-1" value="1" style="rounded=0;whiteSpace=wrap;html=1;fillColor=#fff2cc;strokeColor=#d6b656;" vertex="1" parent="1">
          <mxGeometry x="220" y="210" width="57.69" height="35.93" as="geometry" />
        </mxCell>
        <mxCell id="flg8Zj_wZAHKv5EspBRr-2" value="2" style="rounded=0;whiteSpace=wrap;html=1;fillColor=#fff2cc;strokeColor=#d6b656;" vertex="1" parent="1">
          <mxGeometry x="320" y="210" width="52.96" height="35.93" as="geometry" />
        </mxCell>
        <mxCell id="flg8Zj_wZAHKv5EspBRr-3" value="" style="edgeStyle=orthogonalEdgeStyle;rounded=0;orthogonalLoop=1;jettySize=auto;html=1;" edge="1" parent="1" source="flg8Zj_wZAHKv5EspBRr-1" target="flg8Zj_wZAHKv5EspBRr-2">
          <mxGeometry x="100" y="120" as="geometry" />
        </mxCell>
        <mxCell id="flg8Zj_wZAHKv5EspBRr-4" value="3" style="rounded=0;whiteSpace=wrap;html=1;fillColor=#fff2cc;strokeColor=#d6b656;" vertex="1" parent="1">
          <mxGeometry x="420" y="210" width="53.85" height="35.93" as="geometry" />
        </mxCell>
        <mxCell id="flg8Zj_wZAHKv5EspBRr-5" value="" style="edgeStyle=orthogonalEdgeStyle;rounded=0;orthogonalLoop=1;jettySize=auto;html=1;" edge="1" parent="1" source="flg8Zj_wZAHKv5EspBRr-2" target="flg8Zj_wZAHKv5EspBRr-4">
          <mxGeometry x="100" y="120" as="geometry" />
        </mxCell>
        <mxCell id="flg8Zj_wZAHKv5EspBRr-13" value="" style="edgeStyle=orthogonalEdgeStyle;rounded=0;orthogonalLoop=1;jettySize=auto;html=1;" edge="1" parent="1" target="flg8Zj_wZAHKv5EspBRr-1">
          <mxGeometry x="100" y="120" as="geometry">
            <mxPoint x="249" y="170" as="sourcePoint" />
          </mxGeometry>
        </mxCell>
        <mxCell id="flg8Zj_wZAHKv5EspBRr-11" value="l1" style="text;html=1;align=center;verticalAlign=middle;resizable=0;points=[];autosize=1;strokeColor=none;" vertex="1" parent="1">
          <mxGeometry x="238.84153846153845" y="150" width="20" height="20" as="geometry" />
        </mxCell>
        <mxCell id="flg8Zj_wZAHKv5EspBRr-15" value="l3" style="text;html=1;align=center;verticalAlign=middle;resizable=0;points=[];autosize=1;strokeColor=none;" vertex="1" parent="1">
          <mxGeometry x="150" y="427.2203703703704" width="20" height="20" as="geometry" />
        </mxCell>
        <mxCell id="flg8Zj_wZAHKv5EspBRr-16" value="1" style="whiteSpace=wrap;html=1;fillColor=#d5e8d4;strokeColor=#82b366;" vertex="1" parent="1">
          <mxGeometry x="225" y="420" width="47.69" height="34.44" as="geometry" />
        </mxCell>
        <mxCell id="flg8Zj_wZAHKv5EspBRr-17" value="" style="edgeStyle=orthogonalEdgeStyle;rounded=0;orthogonalLoop=1;jettySize=auto;html=1;" edge="1" parent="1" source="flg8Zj_wZAHKv5EspBRr-15" target="flg8Zj_wZAHKv5EspBRr-16">
          <mxGeometry x="100" y="64.44" as="geometry" />
        </mxCell>
        <mxCell id="flg8Zj_wZAHKv5EspBRr-18" value="null" style="whiteSpace=wrap;html=1;fillColor=#d5e8d4;strokeColor=#82b366;" vertex="1" parent="1">
          <mxGeometry x="311.54" y="420" width="48.46" height="34.44" as="geometry" />
        </mxCell>
        <mxCell id="flg8Zj_wZAHKv5EspBRr-19" value="" style="edgeStyle=orthogonalEdgeStyle;rounded=0;orthogonalLoop=1;jettySize=auto;html=1;" edge="1" parent="1" source="flg8Zj_wZAHKv5EspBRr-16" target="flg8Zj_wZAHKv5EspBRr-18">
          <mxGeometry x="100" y="64.44" as="geometry" />
        </mxCell>
        <mxCell id="flg8Zj_wZAHKv5EspBRr-20" value="null" style="rounded=0;whiteSpace=wrap;html=1;fillColor=#fff2cc;strokeColor=#d6b656;" vertex="1" parent="1">
          <mxGeometry x="510" y="210" width="50" height="35.93" as="geometry" />
        </mxCell>
        <mxCell id="flg8Zj_wZAHKv5EspBRr-21" value="" style="edgeStyle=orthogonalEdgeStyle;rounded=0;orthogonalLoop=1;jettySize=auto;html=1;" edge="1" parent="1" source="flg8Zj_wZAHKv5EspBRr-4" target="flg8Zj_wZAHKv5EspBRr-20">
          <mxGeometry x="100" y="120" as="geometry" />
        </mxCell>
        <mxCell id="flg8Zj_wZAHKv5EspBRr-35" value="1" style="rounded=0;whiteSpace=wrap;html=1;fillColor=#f8cecc;strokeColor=#b85450;" vertex="1" parent="1">
          <mxGeometry x="220" y="320" width="57.69" height="35.93" as="geometry" />
        </mxCell>
        <mxCell id="flg8Zj_wZAHKv5EspBRr-36" value="3" style="rounded=0;whiteSpace=wrap;html=1;fillColor=#f8cecc;strokeColor=#b85450;" vertex="1" parent="1">
          <mxGeometry x="320" y="320" width="52.96" height="35.93" as="geometry" />
        </mxCell>
        <mxCell id="flg8Zj_wZAHKv5EspBRr-37" value="" style="edgeStyle=orthogonalEdgeStyle;rounded=0;orthogonalLoop=1;jettySize=auto;html=1;" edge="1" parent="1" source="flg8Zj_wZAHKv5EspBRr-35" target="flg8Zj_wZAHKv5EspBRr-36">
          <mxGeometry x="100" y="230" as="geometry" />
        </mxCell>
        <mxCell id="flg8Zj_wZAHKv5EspBRr-38" value="4" style="rounded=0;whiteSpace=wrap;html=1;fillColor=#f8cecc;strokeColor=#b85450;" vertex="1" parent="1">
          <mxGeometry x="420" y="320" width="53.85" height="35.93" as="geometry" />
        </mxCell>
        <mxCell id="flg8Zj_wZAHKv5EspBRr-39" value="" style="edgeStyle=orthogonalEdgeStyle;rounded=0;orthogonalLoop=1;jettySize=auto;html=1;" edge="1" parent="1" source="flg8Zj_wZAHKv5EspBRr-36" target="flg8Zj_wZAHKv5EspBRr-38">
          <mxGeometry x="100" y="230" as="geometry" />
        </mxCell>
        <mxCell id="flg8Zj_wZAHKv5EspBRr-40" value="" style="edgeStyle=orthogonalEdgeStyle;rounded=0;orthogonalLoop=1;jettySize=auto;html=1;" edge="1" parent="1" target="flg8Zj_wZAHKv5EspBRr-35">
          <mxGeometry x="100" y="230" as="geometry">
            <mxPoint x="249" y="280" as="sourcePoint" />
          </mxGeometry>
        </mxCell>
        <mxCell id="flg8Zj_wZAHKv5EspBRr-41" value="l2" style="text;html=1;align=center;verticalAlign=middle;resizable=0;points=[];autosize=1;strokeColor=none;" vertex="1" parent="1">
          <mxGeometry x="238.84153846153845" y="260" width="20" height="20" as="geometry" />
        </mxCell>
        <mxCell id="flg8Zj_wZAHKv5EspBRr-42" value="null" style="rounded=0;whiteSpace=wrap;html=1;fillColor=#f8cecc;strokeColor=#b85450;" vertex="1" parent="1">
          <mxGeometry x="510" y="320" width="50" height="35.93" as="geometry" />
        </mxCell>
        <mxCell id="flg8Zj_wZAHKv5EspBRr-43" value="" style="edgeStyle=orthogonalEdgeStyle;rounded=0;orthogonalLoop=1;jettySize=auto;html=1;" edge="1" parent="1" source="flg8Zj_wZAHKv5EspBRr-38" target="flg8Zj_wZAHKv5EspBRr-42">
          <mxGeometry x="100" y="230" as="geometry" />
        </mxCell>
        <mxCell id="flg8Zj_wZAHKv5EspBRr-68" value="" style="rounded=0;whiteSpace=wrap;html=1;fillColor=#dae8fc;strokeColor=#6c8ebf;" vertex="1" parent="1">
          <mxGeometry x="120" y="530" width="510" height="340" as="geometry" />
        </mxCell>
        <mxCell id="flg8Zj_wZAHKv5EspBRr-69" value="1" style="rounded=0;whiteSpace=wrap;html=1;fillColor=#fff2cc;strokeColor=#d6b656;" vertex="1" parent="1">
          <mxGeometry x="200" y="610" width="57.69" height="35.93" as="geometry" />
        </mxCell>
        <mxCell id="flg8Zj_wZAHKv5EspBRr-70" value="2" style="rounded=0;whiteSpace=wrap;html=1;fillColor=#fff2cc;strokeColor=#d6b656;" vertex="1" parent="1">
          <mxGeometry x="300" y="610" width="52.96" height="35.93" as="geometry" />
        </mxCell>
        <mxCell id="flg8Zj_wZAHKv5EspBRr-71" value="" style="edgeStyle=orthogonalEdgeStyle;rounded=0;orthogonalLoop=1;jettySize=auto;html=1;" edge="1" parent="1" source="flg8Zj_wZAHKv5EspBRr-69" target="flg8Zj_wZAHKv5EspBRr-70">
          <mxGeometry x="80" y="520" as="geometry" />
        </mxCell>
        <mxCell id="flg8Zj_wZAHKv5EspBRr-72" value="3" style="rounded=0;whiteSpace=wrap;html=1;fillColor=#fff2cc;strokeColor=#d6b656;" vertex="1" parent="1">
          <mxGeometry x="400" y="610" width="53.85" height="35.93" as="geometry" />
        </mxCell>
        <mxCell id="flg8Zj_wZAHKv5EspBRr-73" value="" style="edgeStyle=orthogonalEdgeStyle;rounded=0;orthogonalLoop=1;jettySize=auto;html=1;" edge="1" parent="1" source="flg8Zj_wZAHKv5EspBRr-70" target="flg8Zj_wZAHKv5EspBRr-72">
          <mxGeometry x="80" y="520" as="geometry" />
        </mxCell>
        <mxCell id="flg8Zj_wZAHKv5EspBRr-74" value="" style="edgeStyle=orthogonalEdgeStyle;rounded=0;orthogonalLoop=1;jettySize=auto;html=1;" edge="1" parent="1" target="flg8Zj_wZAHKv5EspBRr-69">
          <mxGeometry x="80" y="520" as="geometry">
            <mxPoint x="229" y="570" as="sourcePoint" />
          </mxGeometry>
        </mxCell>
        <mxCell id="flg8Zj_wZAHKv5EspBRr-75" value="l1" style="text;html=1;align=center;verticalAlign=middle;resizable=0;points=[];autosize=1;strokeColor=none;" vertex="1" parent="1">
          <mxGeometry x="218.84153846153845" y="550" width="20" height="20" as="geometry" />
        </mxCell>
        <mxCell id="flg8Zj_wZAHKv5EspBRr-76" value="l3" style="text;html=1;align=center;verticalAlign=middle;resizable=0;points=[];autosize=1;strokeColor=none;" vertex="1" parent="1">
          <mxGeometry x="130" y="727.9603703703704" width="20" height="20" as="geometry" />
        </mxCell>
        <mxCell id="flg8Zj_wZAHKv5EspBRr-94" value="" style="edgeStyle=orthogonalEdgeStyle;rounded=0;orthogonalLoop=1;jettySize=auto;html=1;" edge="1" parent="1" source="flg8Zj_wZAHKv5EspBRr-77" target="flg8Zj_wZAHKv5EspBRr-83">
          <mxGeometry relative="1" as="geometry" />
        </mxCell>
        <mxCell id="flg8Zj_wZAHKv5EspBRr-77" value="1" style="whiteSpace=wrap;html=1;fillColor=#d5e8d4;strokeColor=#82b366;" vertex="1" parent="1">
          <mxGeometry x="205" y="820" width="47.69" height="34.44" as="geometry" />
        </mxCell>
        <mxCell id="flg8Zj_wZAHKv5EspBRr-78" value="" style="edgeStyle=orthogonalEdgeStyle;rounded=0;orthogonalLoop=1;jettySize=auto;html=1;entryX=0;entryY=0.5;entryDx=0;entryDy=0;" edge="1" parent="1" source="flg8Zj_wZAHKv5EspBRr-76" target="flg8Zj_wZAHKv5EspBRr-83">
          <mxGeometry x="80" y="464.44" as="geometry" />
        </mxCell>
        <mxCell id="flg8Zj_wZAHKv5EspBRr-81" value="null" style="rounded=0;whiteSpace=wrap;html=1;fillColor=#fff2cc;strokeColor=#d6b656;" vertex="1" parent="1">
          <mxGeometry x="490" y="610" width="50" height="35.93" as="geometry" />
        </mxCell>
        <mxCell id="flg8Zj_wZAHKv5EspBRr-82" value="" style="edgeStyle=orthogonalEdgeStyle;rounded=0;orthogonalLoop=1;jettySize=auto;html=1;" edge="1" parent="1" source="flg8Zj_wZAHKv5EspBRr-72" target="flg8Zj_wZAHKv5EspBRr-81">
          <mxGeometry x="80" y="520" as="geometry" />
        </mxCell>
        <mxCell id="flg8Zj_wZAHKv5EspBRr-83" value="1" style="rounded=0;whiteSpace=wrap;html=1;fillColor=#f8cecc;strokeColor=#b85450;" vertex="1" parent="1">
          <mxGeometry x="200" y="720" width="57.69" height="35.93" as="geometry" />
        </mxCell>
        <mxCell id="flg8Zj_wZAHKv5EspBRr-84" value="3" style="rounded=0;whiteSpace=wrap;html=1;fillColor=#f8cecc;strokeColor=#b85450;" vertex="1" parent="1">
          <mxGeometry x="300" y="720" width="52.96" height="35.93" as="geometry" />
        </mxCell>
        <mxCell id="flg8Zj_wZAHKv5EspBRr-85" value="" style="edgeStyle=orthogonalEdgeStyle;rounded=0;orthogonalLoop=1;jettySize=auto;html=1;" edge="1" parent="1" source="flg8Zj_wZAHKv5EspBRr-83" target="flg8Zj_wZAHKv5EspBRr-84">
          <mxGeometry x="80" y="630" as="geometry" />
        </mxCell>
        <mxCell id="flg8Zj_wZAHKv5EspBRr-86" value="4" style="rounded=0;whiteSpace=wrap;html=1;fillColor=#f8cecc;strokeColor=#b85450;" vertex="1" parent="1">
          <mxGeometry x="400" y="720" width="53.85" height="35.93" as="geometry" />
        </mxCell>
        <mxCell id="flg8Zj_wZAHKv5EspBRr-87" value="" style="edgeStyle=orthogonalEdgeStyle;rounded=0;orthogonalLoop=1;jettySize=auto;html=1;" edge="1" parent="1" source="flg8Zj_wZAHKv5EspBRr-84" target="flg8Zj_wZAHKv5EspBRr-86">
          <mxGeometry x="80" y="630" as="geometry" />
        </mxCell>
        <mxCell id="flg8Zj_wZAHKv5EspBRr-88" value="" style="edgeStyle=orthogonalEdgeStyle;rounded=0;orthogonalLoop=1;jettySize=auto;html=1;entryX=0.5;entryY=0;entryDx=0;entryDy=0;" edge="1" parent="1" target="flg8Zj_wZAHKv5EspBRr-84">
          <mxGeometry x="80" y="630" as="geometry">
            <mxPoint x="326" y="680" as="sourcePoint" />
          </mxGeometry>
        </mxCell>
        <mxCell id="flg8Zj_wZAHKv5EspBRr-89" value="l2" style="text;html=1;align=center;verticalAlign=middle;resizable=0;points=[];autosize=1;strokeColor=none;" vertex="1" parent="1">
          <mxGeometry x="316.48153846153843" y="660" width="20" height="20" as="geometry" />
        </mxCell>
        <mxCell id="flg8Zj_wZAHKv5EspBRr-90" value="null" style="rounded=0;whiteSpace=wrap;html=1;fillColor=#f8cecc;strokeColor=#b85450;" vertex="1" parent="1">
          <mxGeometry x="490" y="720" width="50" height="35.93" as="geometry" />
        </mxCell>
        <mxCell id="flg8Zj_wZAHKv5EspBRr-91" value="" style="edgeStyle=orthogonalEdgeStyle;rounded=0;orthogonalLoop=1;jettySize=auto;html=1;" edge="1" parent="1" source="flg8Zj_wZAHKv5EspBRr-86" target="flg8Zj_wZAHKv5EspBRr-90">
          <mxGeometry x="80" y="630" as="geometry" />
        </mxCell>
        <mxCell id="flg8Zj_wZAHKv5EspBRr-92" value="l1.val &amp;lt; l2.val&amp;nbsp; &lt;font color=&quot;#ff0000&quot;&gt;false&lt;/font&gt;" style="text;html=1;align=center;verticalAlign=middle;resizable=0;points=[];autosize=1;strokeColor=none;" vertex="1" parent="1">
          <mxGeometry x="480" y="550" width="120" height="20" as="geometry" />
        </mxCell>
        <mxCell id="flg8Zj_wZAHKv5EspBRr-93" value="l3.next = l2" style="text;html=1;align=center;verticalAlign=middle;resizable=0;points=[];autosize=1;strokeColor=none;" vertex="1" parent="1">
          <mxGeometry x="490" y="570" width="70" height="20" as="geometry" />
        </mxCell>
        <mxCell id="flg8Zj_wZAHKv5EspBRr-95" value="" style="rounded=0;whiteSpace=wrap;html=1;fillColor=#dae8fc;strokeColor=#6c8ebf;" vertex="1" parent="1">
          <mxGeometry x="110" y="940" width="510" height="340" as="geometry" />
        </mxCell>
        <mxCell id="flg8Zj_wZAHKv5EspBRr-96" value="1" style="rounded=0;whiteSpace=wrap;html=1;fillColor=#fff2cc;strokeColor=#d6b656;" vertex="1" parent="1">
          <mxGeometry x="190" y="1020" width="57.69" height="35.93" as="geometry" />
        </mxCell>
        <mxCell id="flg8Zj_wZAHKv5EspBRr-97" value="2" style="rounded=0;whiteSpace=wrap;html=1;fillColor=#fff2cc;strokeColor=#d6b656;" vertex="1" parent="1">
          <mxGeometry x="290" y="1020" width="52.96" height="35.93" as="geometry" />
        </mxCell>
        <mxCell id="flg8Zj_wZAHKv5EspBRr-98" value="" style="edgeStyle=orthogonalEdgeStyle;rounded=0;orthogonalLoop=1;jettySize=auto;html=1;" edge="1" parent="1" source="flg8Zj_wZAHKv5EspBRr-96" target="flg8Zj_wZAHKv5EspBRr-97">
          <mxGeometry x="70" y="930" as="geometry" />
        </mxCell>
        <mxCell id="flg8Zj_wZAHKv5EspBRr-99" value="3" style="rounded=0;whiteSpace=wrap;html=1;fillColor=#fff2cc;strokeColor=#d6b656;" vertex="1" parent="1">
          <mxGeometry x="390" y="1020" width="53.85" height="35.93" as="geometry" />
        </mxCell>
        <mxCell id="flg8Zj_wZAHKv5EspBRr-100" value="" style="edgeStyle=orthogonalEdgeStyle;rounded=0;orthogonalLoop=1;jettySize=auto;html=1;" edge="1" parent="1" source="flg8Zj_wZAHKv5EspBRr-97" target="flg8Zj_wZAHKv5EspBRr-99">
          <mxGeometry x="70" y="930" as="geometry" />
        </mxCell>
        <mxCell id="flg8Zj_wZAHKv5EspBRr-101" value="" style="edgeStyle=orthogonalEdgeStyle;rounded=0;orthogonalLoop=1;jettySize=auto;html=1;entryX=0.5;entryY=0;entryDx=0;entryDy=0;" edge="1" parent="1" target="flg8Zj_wZAHKv5EspBRr-97" source="flg8Zj_wZAHKv5EspBRr-102">
          <mxGeometry x="70" y="930" as="geometry">
            <mxPoint x="219" y="980" as="sourcePoint" />
          </mxGeometry>
        </mxCell>
        <mxCell id="flg8Zj_wZAHKv5EspBRr-102" value="l1" style="text;html=1;align=center;verticalAlign=middle;resizable=0;points=[];autosize=1;strokeColor=none;" vertex="1" parent="1">
          <mxGeometry x="305.77153846153846" y="960" width="20" height="20" as="geometry" />
        </mxCell>
        <mxCell id="flg8Zj_wZAHKv5EspBRr-103" value="l3" style="text;html=1;align=center;verticalAlign=middle;resizable=0;points=[];autosize=1;strokeColor=none;" vertex="1" parent="1">
          <mxGeometry x="120" y="1027.9603703703704" width="20" height="20" as="geometry" />
        </mxCell>
        <mxCell id="flg8Zj_wZAHKv5EspBRr-104" value="" style="edgeStyle=orthogonalEdgeStyle;rounded=0;orthogonalLoop=1;jettySize=auto;html=1;" edge="1" parent="1" source="flg8Zj_wZAHKv5EspBRr-105" target="flg8Zj_wZAHKv5EspBRr-109">
          <mxGeometry relative="1" as="geometry" />
        </mxCell>
        <mxCell id="flg8Zj_wZAHKv5EspBRr-105" value="1" style="whiteSpace=wrap;html=1;fillColor=#d5e8d4;strokeColor=#82b366;" vertex="1" parent="1">
          <mxGeometry x="195" y="1230" width="47.69" height="34.44" as="geometry" />
        </mxCell>
        <mxCell id="flg8Zj_wZAHKv5EspBRr-106" value="" style="edgeStyle=orthogonalEdgeStyle;rounded=0;orthogonalLoop=1;jettySize=auto;html=1;entryX=0;entryY=0.5;entryDx=0;entryDy=0;" edge="1" parent="1" source="flg8Zj_wZAHKv5EspBRr-103" target="flg8Zj_wZAHKv5EspBRr-96">
          <mxGeometry x="70" y="874.44" as="geometry" />
        </mxCell>
        <mxCell id="flg8Zj_wZAHKv5EspBRr-107" value="null" style="rounded=0;whiteSpace=wrap;html=1;fillColor=#fff2cc;strokeColor=#d6b656;" vertex="1" parent="1">
          <mxGeometry x="480" y="1020" width="50" height="35.93" as="geometry" />
        </mxCell>
        <mxCell id="flg8Zj_wZAHKv5EspBRr-108" value="" style="edgeStyle=orthogonalEdgeStyle;rounded=0;orthogonalLoop=1;jettySize=auto;html=1;" edge="1" parent="1" source="flg8Zj_wZAHKv5EspBRr-99" target="flg8Zj_wZAHKv5EspBRr-107">
          <mxGeometry x="70" y="930" as="geometry" />
        </mxCell>
        <mxCell id="flg8Zj_wZAHKv5EspBRr-120" value="" style="edgeStyle=orthogonalEdgeStyle;rounded=0;orthogonalLoop=1;jettySize=auto;html=1;" edge="1" parent="1" source="flg8Zj_wZAHKv5EspBRr-109" target="flg8Zj_wZAHKv5EspBRr-96">
          <mxGeometry relative="1" as="geometry" />
        </mxCell>
        <mxCell id="flg8Zj_wZAHKv5EspBRr-109" value="1" style="rounded=0;whiteSpace=wrap;html=1;fillColor=#f8cecc;strokeColor=#b85450;" vertex="1" parent="1">
          <mxGeometry x="190" y="1130" width="57.69" height="35.93" as="geometry" />
        </mxCell>
        <mxCell id="flg8Zj_wZAHKv5EspBRr-110" value="3" style="rounded=0;whiteSpace=wrap;html=1;fillColor=#f8cecc;strokeColor=#b85450;" vertex="1" parent="1">
          <mxGeometry x="290" y="1130" width="52.96" height="35.93" as="geometry" />
        </mxCell>
        <mxCell id="flg8Zj_wZAHKv5EspBRr-112" value="4" style="rounded=0;whiteSpace=wrap;html=1;fillColor=#f8cecc;strokeColor=#b85450;" vertex="1" parent="1">
          <mxGeometry x="390" y="1130" width="53.85" height="35.93" as="geometry" />
        </mxCell>
        <mxCell id="flg8Zj_wZAHKv5EspBRr-113" value="" style="edgeStyle=orthogonalEdgeStyle;rounded=0;orthogonalLoop=1;jettySize=auto;html=1;" edge="1" parent="1" source="flg8Zj_wZAHKv5EspBRr-110" target="flg8Zj_wZAHKv5EspBRr-112">
          <mxGeometry x="70" y="1040" as="geometry" />
        </mxCell>
        <mxCell id="flg8Zj_wZAHKv5EspBRr-114" value="" style="edgeStyle=orthogonalEdgeStyle;rounded=0;orthogonalLoop=1;jettySize=auto;html=1;entryX=0.5;entryY=0;entryDx=0;entryDy=0;" edge="1" parent="1" target="flg8Zj_wZAHKv5EspBRr-110">
          <mxGeometry x="70" y="1040" as="geometry">
            <mxPoint x="316" y="1090" as="sourcePoint" />
          </mxGeometry>
        </mxCell>
        <mxCell id="flg8Zj_wZAHKv5EspBRr-115" value="l2" style="text;html=1;align=center;verticalAlign=middle;resizable=0;points=[];autosize=1;strokeColor=none;" vertex="1" parent="1">
          <mxGeometry x="306.48153846153843" y="1070" width="20" height="20" as="geometry" />
        </mxCell>
        <mxCell id="flg8Zj_wZAHKv5EspBRr-116" value="null" style="rounded=0;whiteSpace=wrap;html=1;fillColor=#f8cecc;strokeColor=#b85450;" vertex="1" parent="1">
          <mxGeometry x="480" y="1130" width="50" height="35.93" as="geometry" />
        </mxCell>
        <mxCell id="flg8Zj_wZAHKv5EspBRr-117" value="" style="edgeStyle=orthogonalEdgeStyle;rounded=0;orthogonalLoop=1;jettySize=auto;html=1;" edge="1" parent="1" source="flg8Zj_wZAHKv5EspBRr-112" target="flg8Zj_wZAHKv5EspBRr-116">
          <mxGeometry x="70" y="1040" as="geometry" />
        </mxCell>
        <mxCell id="flg8Zj_wZAHKv5EspBRr-118" value="l1.val &amp;lt; l2.val&amp;nbsp; &lt;font color=&quot;#ff0000&quot;&gt;true&lt;/font&gt;" style="text;html=1;align=center;verticalAlign=middle;resizable=0;points=[];autosize=1;strokeColor=none;" vertex="1" parent="1">
          <mxGeometry x="475" y="960" width="110" height="20" as="geometry" />
        </mxCell>
        <mxCell id="flg8Zj_wZAHKv5EspBRr-119" value="l3.next = l1" style="text;html=1;align=center;verticalAlign=middle;resizable=0;points=[];autosize=1;strokeColor=none;" vertex="1" parent="1">
          <mxGeometry x="480" y="980" width="70" height="20" as="geometry" />
        </mxCell>
        <mxCell id="flg8Zj_wZAHKv5EspBRr-122" value="" style="rounded=0;whiteSpace=wrap;html=1;fillColor=#dae8fc;strokeColor=#6c8ebf;" vertex="1" parent="1">
          <mxGeometry x="110" y="1350" width="510" height="340" as="geometry" />
        </mxCell>
        <mxCell id="flg8Zj_wZAHKv5EspBRr-123" value="1" style="rounded=0;whiteSpace=wrap;html=1;fillColor=#fff2cc;strokeColor=#d6b656;" vertex="1" parent="1">
          <mxGeometry x="190" y="1430" width="57.69" height="35.93" as="geometry" />
        </mxCell>
        <mxCell id="flg8Zj_wZAHKv5EspBRr-124" value="2" style="rounded=0;whiteSpace=wrap;html=1;fillColor=#fff2cc;strokeColor=#d6b656;" vertex="1" parent="1">
          <mxGeometry x="290" y="1430" width="52.96" height="35.93" as="geometry" />
        </mxCell>
        <mxCell id="flg8Zj_wZAHKv5EspBRr-125" value="" style="edgeStyle=orthogonalEdgeStyle;rounded=0;orthogonalLoop=1;jettySize=auto;html=1;" edge="1" parent="1" source="flg8Zj_wZAHKv5EspBRr-123" target="flg8Zj_wZAHKv5EspBRr-124">
          <mxGeometry x="70" y="1340" as="geometry" />
        </mxCell>
        <mxCell id="flg8Zj_wZAHKv5EspBRr-126" value="3" style="rounded=0;whiteSpace=wrap;html=1;fillColor=#fff2cc;strokeColor=#d6b656;" vertex="1" parent="1">
          <mxGeometry x="390" y="1430" width="53.85" height="35.93" as="geometry" />
        </mxCell>
        <mxCell id="flg8Zj_wZAHKv5EspBRr-127" value="" style="edgeStyle=orthogonalEdgeStyle;rounded=0;orthogonalLoop=1;jettySize=auto;html=1;" edge="1" parent="1" source="flg8Zj_wZAHKv5EspBRr-124" target="flg8Zj_wZAHKv5EspBRr-126">
          <mxGeometry x="70" y="1340" as="geometry" />
        </mxCell>
        <mxCell id="flg8Zj_wZAHKv5EspBRr-128" value="" style="edgeStyle=orthogonalEdgeStyle;rounded=0;orthogonalLoop=1;jettySize=auto;html=1;" edge="1" parent="1" source="flg8Zj_wZAHKv5EspBRr-129" target="flg8Zj_wZAHKv5EspBRr-126">
          <mxGeometry x="70" y="1340" as="geometry">
            <mxPoint x="219" y="1390" as="sourcePoint" />
          </mxGeometry>
        </mxCell>
        <mxCell id="flg8Zj_wZAHKv5EspBRr-129" value="l1" style="text;html=1;align=center;verticalAlign=middle;resizable=0;points=[];autosize=1;strokeColor=none;" vertex="1" parent="1">
          <mxGeometry x="406.9215384615385" y="1370" width="20" height="20" as="geometry" />
        </mxCell>
        <mxCell id="flg8Zj_wZAHKv5EspBRr-130" value="l3" style="text;html=1;align=center;verticalAlign=middle;resizable=0;points=[];autosize=1;strokeColor=none;" vertex="1" parent="1">
          <mxGeometry x="306.48" y="1370.0003703703703" width="20" height="20" as="geometry" />
        </mxCell>
        <mxCell id="flg8Zj_wZAHKv5EspBRr-131" value="" style="edgeStyle=orthogonalEdgeStyle;rounded=0;orthogonalLoop=1;jettySize=auto;html=1;" edge="1" parent="1" source="flg8Zj_wZAHKv5EspBRr-132" target="flg8Zj_wZAHKv5EspBRr-137">
          <mxGeometry relative="1" as="geometry" />
        </mxCell>
        <mxCell id="flg8Zj_wZAHKv5EspBRr-132" value="1" style="whiteSpace=wrap;html=1;fillColor=#d5e8d4;strokeColor=#82b366;" vertex="1" parent="1">
          <mxGeometry x="195" y="1640" width="47.69" height="34.44" as="geometry" />
        </mxCell>
        <mxCell id="flg8Zj_wZAHKv5EspBRr-133" value="" style="edgeStyle=orthogonalEdgeStyle;rounded=0;orthogonalLoop=1;jettySize=auto;html=1;" edge="1" parent="1" source="flg8Zj_wZAHKv5EspBRr-130" target="flg8Zj_wZAHKv5EspBRr-124">
          <mxGeometry x="70" y="1284.44" as="geometry" />
        </mxCell>
        <mxCell id="flg8Zj_wZAHKv5EspBRr-134" value="null" style="rounded=0;whiteSpace=wrap;html=1;fillColor=#fff2cc;strokeColor=#d6b656;" vertex="1" parent="1">
          <mxGeometry x="480" y="1430" width="50" height="35.93" as="geometry" />
        </mxCell>
        <mxCell id="flg8Zj_wZAHKv5EspBRr-135" value="" style="edgeStyle=orthogonalEdgeStyle;rounded=0;orthogonalLoop=1;jettySize=auto;html=1;" edge="1" parent="1" source="flg8Zj_wZAHKv5EspBRr-126" target="flg8Zj_wZAHKv5EspBRr-134">
          <mxGeometry x="70" y="1340" as="geometry" />
        </mxCell>
        <mxCell id="flg8Zj_wZAHKv5EspBRr-136" value="" style="edgeStyle=orthogonalEdgeStyle;rounded=0;orthogonalLoop=1;jettySize=auto;html=1;" edge="1" parent="1" source="flg8Zj_wZAHKv5EspBRr-137" target="flg8Zj_wZAHKv5EspBRr-123">
          <mxGeometry relative="1" as="geometry" />
        </mxCell>
        <mxCell id="flg8Zj_wZAHKv5EspBRr-137" value="1" style="rounded=0;whiteSpace=wrap;html=1;fillColor=#f8cecc;strokeColor=#b85450;" vertex="1" parent="1">
          <mxGeometry x="190" y="1540" width="57.69" height="35.93" as="geometry" />
        </mxCell>
        <mxCell id="flg8Zj_wZAHKv5EspBRr-138" value="3" style="rounded=0;whiteSpace=wrap;html=1;fillColor=#f8cecc;strokeColor=#b85450;" vertex="1" parent="1">
          <mxGeometry x="290" y="1540" width="52.96" height="35.93" as="geometry" />
        </mxCell>
        <mxCell id="flg8Zj_wZAHKv5EspBRr-139" value="4" style="rounded=0;whiteSpace=wrap;html=1;fillColor=#f8cecc;strokeColor=#b85450;" vertex="1" parent="1">
          <mxGeometry x="390" y="1540" width="53.85" height="35.93" as="geometry" />
        </mxCell>
        <mxCell id="flg8Zj_wZAHKv5EspBRr-140" value="" style="edgeStyle=orthogonalEdgeStyle;rounded=0;orthogonalLoop=1;jettySize=auto;html=1;" edge="1" parent="1" source="flg8Zj_wZAHKv5EspBRr-138" target="flg8Zj_wZAHKv5EspBRr-139">
          <mxGeometry x="70" y="1450" as="geometry" />
        </mxCell>
        <mxCell id="flg8Zj_wZAHKv5EspBRr-141" value="" style="edgeStyle=orthogonalEdgeStyle;rounded=0;orthogonalLoop=1;jettySize=auto;html=1;entryX=0.5;entryY=0;entryDx=0;entryDy=0;" edge="1" parent="1" target="flg8Zj_wZAHKv5EspBRr-138">
          <mxGeometry x="70" y="1450" as="geometry">
            <mxPoint x="316" y="1500" as="sourcePoint" />
          </mxGeometry>
        </mxCell>
        <mxCell id="flg8Zj_wZAHKv5EspBRr-142" value="l2" style="text;html=1;align=center;verticalAlign=middle;resizable=0;points=[];autosize=1;strokeColor=none;" vertex="1" parent="1">
          <mxGeometry x="306.48153846153843" y="1480" width="20" height="20" as="geometry" />
        </mxCell>
        <mxCell id="flg8Zj_wZAHKv5EspBRr-143" value="null" style="rounded=0;whiteSpace=wrap;html=1;fillColor=#f8cecc;strokeColor=#b85450;" vertex="1" parent="1">
          <mxGeometry x="480" y="1540" width="50" height="35.93" as="geometry" />
        </mxCell>
        <mxCell id="flg8Zj_wZAHKv5EspBRr-144" value="" style="edgeStyle=orthogonalEdgeStyle;rounded=0;orthogonalLoop=1;jettySize=auto;html=1;" edge="1" parent="1" source="flg8Zj_wZAHKv5EspBRr-139" target="flg8Zj_wZAHKv5EspBRr-143">
          <mxGeometry x="70" y="1450" as="geometry" />
        </mxCell>
        <mxCell id="flg8Zj_wZAHKv5EspBRr-145" value="l1.val &amp;lt; l2.val&amp;nbsp; &lt;font color=&quot;#ff0000&quot;&gt;true&lt;/font&gt;" style="text;html=1;align=center;verticalAlign=middle;resizable=0;points=[];autosize=1;strokeColor=none;" vertex="1" parent="1">
          <mxGeometry x="475" y="1370" width="110" height="20" as="geometry" />
        </mxCell>
        <mxCell id="flg8Zj_wZAHKv5EspBRr-146" value="l3.next = l1" style="text;html=1;align=center;verticalAlign=middle;resizable=0;points=[];autosize=1;strokeColor=none;" vertex="1" parent="1">
          <mxGeometry x="480" y="1390" width="70" height="20" as="geometry" />
        </mxCell>
        <mxCell id="flg8Zj_wZAHKv5EspBRr-149" value="" style="rounded=0;whiteSpace=wrap;html=1;fillColor=#dae8fc;strokeColor=#6c8ebf;" vertex="1" parent="1">
          <mxGeometry x="110" y="1750" width="510" height="340" as="geometry" />
        </mxCell>
        <mxCell id="flg8Zj_wZAHKv5EspBRr-150" value="1" style="rounded=0;whiteSpace=wrap;html=1;fillColor=#fff2cc;strokeColor=#d6b656;" vertex="1" parent="1">
          <mxGeometry x="190" y="1830" width="57.69" height="35.93" as="geometry" />
        </mxCell>
        <mxCell id="flg8Zj_wZAHKv5EspBRr-174" value="" style="edgeStyle=orthogonalEdgeStyle;rounded=0;orthogonalLoop=1;jettySize=auto;html=1;" edge="1" parent="1" source="flg8Zj_wZAHKv5EspBRr-151" target="flg8Zj_wZAHKv5EspBRr-165">
          <mxGeometry relative="1" as="geometry" />
        </mxCell>
        <mxCell id="flg8Zj_wZAHKv5EspBRr-151" value="2" style="rounded=0;whiteSpace=wrap;html=1;fillColor=#fff2cc;strokeColor=#d6b656;" vertex="1" parent="1">
          <mxGeometry x="290" y="1830" width="52.96" height="35.93" as="geometry" />
        </mxCell>
        <mxCell id="flg8Zj_wZAHKv5EspBRr-152" value="" style="edgeStyle=orthogonalEdgeStyle;rounded=0;orthogonalLoop=1;jettySize=auto;html=1;" edge="1" parent="1" source="flg8Zj_wZAHKv5EspBRr-150" target="flg8Zj_wZAHKv5EspBRr-151">
          <mxGeometry x="70" y="1740" as="geometry" />
        </mxCell>
        <mxCell id="flg8Zj_wZAHKv5EspBRr-153" value="3" style="rounded=0;whiteSpace=wrap;html=1;fillColor=#fff2cc;strokeColor=#d6b656;" vertex="1" parent="1">
          <mxGeometry x="390" y="1830" width="53.85" height="35.93" as="geometry" />
        </mxCell>
        <mxCell id="flg8Zj_wZAHKv5EspBRr-155" value="" style="edgeStyle=orthogonalEdgeStyle;rounded=0;orthogonalLoop=1;jettySize=auto;html=1;" edge="1" parent="1" source="flg8Zj_wZAHKv5EspBRr-156" target="flg8Zj_wZAHKv5EspBRr-153">
          <mxGeometry x="70" y="1740" as="geometry">
            <mxPoint x="219" y="1790" as="sourcePoint" />
          </mxGeometry>
        </mxCell>
        <mxCell id="flg8Zj_wZAHKv5EspBRr-156" value="l1" style="text;html=1;align=center;verticalAlign=middle;resizable=0;points=[];autosize=1;strokeColor=none;" vertex="1" parent="1">
          <mxGeometry x="406.9215384615385" y="1770" width="20" height="20" as="geometry" />
        </mxCell>
        <mxCell id="flg8Zj_wZAHKv5EspBRr-157" value="l3" style="text;html=1;align=center;verticalAlign=middle;resizable=0;points=[];autosize=1;strokeColor=none;" vertex="1" parent="1">
          <mxGeometry x="305.77000000000004" y="2030.0003703703703" width="20" height="20" as="geometry" />
        </mxCell>
        <mxCell id="flg8Zj_wZAHKv5EspBRr-158" value="" style="edgeStyle=orthogonalEdgeStyle;rounded=0;orthogonalLoop=1;jettySize=auto;html=1;" edge="1" parent="1" source="flg8Zj_wZAHKv5EspBRr-159" target="flg8Zj_wZAHKv5EspBRr-164">
          <mxGeometry relative="1" as="geometry" />
        </mxCell>
        <mxCell id="flg8Zj_wZAHKv5EspBRr-159" value="1" style="whiteSpace=wrap;html=1;fillColor=#d5e8d4;strokeColor=#82b366;" vertex="1" parent="1">
          <mxGeometry x="195" y="2040" width="47.69" height="34.44" as="geometry" />
        </mxCell>
        <mxCell id="flg8Zj_wZAHKv5EspBRr-160" value="" style="edgeStyle=orthogonalEdgeStyle;rounded=0;orthogonalLoop=1;jettySize=auto;html=1;entryX=0.5;entryY=1;entryDx=0;entryDy=0;" edge="1" parent="1" target="flg8Zj_wZAHKv5EspBRr-165">
          <mxGeometry x="70" y="1684.44" as="geometry">
            <mxPoint x="316" y="2030" as="sourcePoint" />
          </mxGeometry>
        </mxCell>
        <mxCell id="flg8Zj_wZAHKv5EspBRr-161" value="null" style="rounded=0;whiteSpace=wrap;html=1;fillColor=#fff2cc;strokeColor=#d6b656;" vertex="1" parent="1">
          <mxGeometry x="480" y="1830" width="50" height="35.93" as="geometry" />
        </mxCell>
        <mxCell id="flg8Zj_wZAHKv5EspBRr-162" value="" style="edgeStyle=orthogonalEdgeStyle;rounded=0;orthogonalLoop=1;jettySize=auto;html=1;" edge="1" parent="1" source="flg8Zj_wZAHKv5EspBRr-153" target="flg8Zj_wZAHKv5EspBRr-161">
          <mxGeometry x="70" y="1740" as="geometry" />
        </mxCell>
        <mxCell id="flg8Zj_wZAHKv5EspBRr-163" value="" style="edgeStyle=orthogonalEdgeStyle;rounded=0;orthogonalLoop=1;jettySize=auto;html=1;" edge="1" parent="1" source="flg8Zj_wZAHKv5EspBRr-164" target="flg8Zj_wZAHKv5EspBRr-150">
          <mxGeometry relative="1" as="geometry" />
        </mxCell>
        <mxCell id="flg8Zj_wZAHKv5EspBRr-164" value="1" style="rounded=0;whiteSpace=wrap;html=1;fillColor=#f8cecc;strokeColor=#b85450;" vertex="1" parent="1">
          <mxGeometry x="190" y="1940" width="57.69" height="35.93" as="geometry" />
        </mxCell>
        <mxCell id="flg8Zj_wZAHKv5EspBRr-165" value="3" style="rounded=0;whiteSpace=wrap;html=1;fillColor=#f8cecc;strokeColor=#b85450;" vertex="1" parent="1">
          <mxGeometry x="290" y="1940" width="52.96" height="35.93" as="geometry" />
        </mxCell>
        <mxCell id="flg8Zj_wZAHKv5EspBRr-166" value="4" style="rounded=0;whiteSpace=wrap;html=1;fillColor=#f8cecc;strokeColor=#b85450;" vertex="1" parent="1">
          <mxGeometry x="390" y="1940" width="53.85" height="35.93" as="geometry" />
        </mxCell>
        <mxCell id="flg8Zj_wZAHKv5EspBRr-167" value="" style="edgeStyle=orthogonalEdgeStyle;rounded=0;orthogonalLoop=1;jettySize=auto;html=1;" edge="1" parent="1" source="flg8Zj_wZAHKv5EspBRr-165" target="flg8Zj_wZAHKv5EspBRr-166">
          <mxGeometry x="70" y="1850" as="geometry" />
        </mxCell>
        <mxCell id="flg8Zj_wZAHKv5EspBRr-168" value="" style="edgeStyle=orthogonalEdgeStyle;rounded=0;orthogonalLoop=1;jettySize=auto;html=1;entryX=0.5;entryY=0;entryDx=0;entryDy=0;" edge="1" parent="1" target="flg8Zj_wZAHKv5EspBRr-166" source="flg8Zj_wZAHKv5EspBRr-169">
          <mxGeometry x="70" y="1850" as="geometry">
            <mxPoint x="316" y="1900" as="sourcePoint" />
          </mxGeometry>
        </mxCell>
        <mxCell id="flg8Zj_wZAHKv5EspBRr-169" value="l2" style="text;html=1;align=center;verticalAlign=middle;resizable=0;points=[];autosize=1;strokeColor=none;" vertex="1" parent="1">
          <mxGeometry x="406.92153846153843" y="1880" width="20" height="20" as="geometry" />
        </mxCell>
        <mxCell id="flg8Zj_wZAHKv5EspBRr-170" value="null" style="rounded=0;whiteSpace=wrap;html=1;fillColor=#f8cecc;strokeColor=#b85450;" vertex="1" parent="1">
          <mxGeometry x="480" y="1940" width="50" height="35.93" as="geometry" />
        </mxCell>
        <mxCell id="flg8Zj_wZAHKv5EspBRr-171" value="" style="edgeStyle=orthogonalEdgeStyle;rounded=0;orthogonalLoop=1;jettySize=auto;html=1;" edge="1" parent="1" source="flg8Zj_wZAHKv5EspBRr-166" target="flg8Zj_wZAHKv5EspBRr-170">
          <mxGeometry x="70" y="1850" as="geometry" />
        </mxCell>
        <mxCell id="flg8Zj_wZAHKv5EspBRr-172" value="l1.val &amp;lt; l2.val&amp;nbsp; &lt;font color=&quot;#ff0000&quot;&gt;false&lt;/font&gt;" style="text;html=1;align=center;verticalAlign=middle;resizable=0;points=[];autosize=1;strokeColor=none;" vertex="1" parent="1">
          <mxGeometry x="470" y="1770" width="120" height="20" as="geometry" />
        </mxCell>
        <mxCell id="flg8Zj_wZAHKv5EspBRr-173" value="l3.next = l2" style="text;html=1;align=center;verticalAlign=middle;resizable=0;points=[];autosize=1;strokeColor=none;" vertex="1" parent="1">
          <mxGeometry x="480" y="1790" width="70" height="20" as="geometry" />
        </mxCell>
        <mxCell id="flg8Zj_wZAHKv5EspBRr-175" value="" style="rounded=0;whiteSpace=wrap;html=1;fillColor=#dae8fc;strokeColor=#6c8ebf;" vertex="1" parent="1">
          <mxGeometry x="110" y="2160" width="510" height="340" as="geometry" />
        </mxCell>
        <mxCell id="flg8Zj_wZAHKv5EspBRr-176" value="1" style="rounded=0;whiteSpace=wrap;html=1;fillColor=#fff2cc;strokeColor=#d6b656;" vertex="1" parent="1">
          <mxGeometry x="190" y="2240" width="57.69" height="35.93" as="geometry" />
        </mxCell>
        <mxCell id="flg8Zj_wZAHKv5EspBRr-177" value="" style="edgeStyle=orthogonalEdgeStyle;rounded=0;orthogonalLoop=1;jettySize=auto;html=1;" edge="1" parent="1" source="flg8Zj_wZAHKv5EspBRr-178" target="flg8Zj_wZAHKv5EspBRr-191">
          <mxGeometry relative="1" as="geometry" />
        </mxCell>
        <mxCell id="flg8Zj_wZAHKv5EspBRr-178" value="2" style="rounded=0;whiteSpace=wrap;html=1;fillColor=#fff2cc;strokeColor=#d6b656;" vertex="1" parent="1">
          <mxGeometry x="290" y="2240" width="52.96" height="35.93" as="geometry" />
        </mxCell>
        <mxCell id="flg8Zj_wZAHKv5EspBRr-179" value="" style="edgeStyle=orthogonalEdgeStyle;rounded=0;orthogonalLoop=1;jettySize=auto;html=1;" edge="1" parent="1" source="flg8Zj_wZAHKv5EspBRr-176" target="flg8Zj_wZAHKv5EspBRr-178">
          <mxGeometry x="70" y="2150" as="geometry" />
        </mxCell>
        <mxCell id="flg8Zj_wZAHKv5EspBRr-180" value="3" style="rounded=0;whiteSpace=wrap;html=1;fillColor=#fff2cc;strokeColor=#d6b656;" vertex="1" parent="1">
          <mxGeometry x="390" y="2240" width="53.85" height="35.93" as="geometry" />
        </mxCell>
        <mxCell id="flg8Zj_wZAHKv5EspBRr-181" value="" style="edgeStyle=orthogonalEdgeStyle;rounded=0;orthogonalLoop=1;jettySize=auto;html=1;entryX=0.5;entryY=0;entryDx=0;entryDy=0;exitX=0.55;exitY=1.2;exitDx=0;exitDy=0;exitPerimeter=0;" edge="1" parent="1" source="flg8Zj_wZAHKv5EspBRr-182" target="flg8Zj_wZAHKv5EspBRr-187">
          <mxGeometry x="70" y="2150" as="geometry">
            <mxPoint x="505" y="2190" as="sourcePoint" />
          </mxGeometry>
        </mxCell>
        <mxCell id="flg8Zj_wZAHKv5EspBRr-182" value="l1" style="text;html=1;align=center;verticalAlign=middle;resizable=0;points=[];autosize=1;strokeColor=none;" vertex="1" parent="1">
          <mxGeometry x="495.0015384615385" y="2180" width="20" height="20" as="geometry" />
        </mxCell>
        <mxCell id="flg8Zj_wZAHKv5EspBRr-202" value="" style="edgeStyle=orthogonalEdgeStyle;rounded=0;orthogonalLoop=1;jettySize=auto;html=1;" edge="1" parent="1" source="flg8Zj_wZAHKv5EspBRr-183">
          <mxGeometry relative="1" as="geometry">
            <mxPoint x="417" y="2240" as="targetPoint" />
          </mxGeometry>
        </mxCell>
        <mxCell id="flg8Zj_wZAHKv5EspBRr-183" value="l3" style="text;html=1;align=center;verticalAlign=middle;resizable=0;points=[];autosize=1;strokeColor=none;" vertex="1" parent="1">
          <mxGeometry x="406.9200000000001" y="2180.0003703703705" width="20" height="20" as="geometry" />
        </mxCell>
        <mxCell id="flg8Zj_wZAHKv5EspBRr-184" value="" style="edgeStyle=orthogonalEdgeStyle;rounded=0;orthogonalLoop=1;jettySize=auto;html=1;" edge="1" parent="1" source="flg8Zj_wZAHKv5EspBRr-185" target="flg8Zj_wZAHKv5EspBRr-190">
          <mxGeometry relative="1" as="geometry" />
        </mxCell>
        <mxCell id="flg8Zj_wZAHKv5EspBRr-185" value="1" style="whiteSpace=wrap;html=1;fillColor=#d5e8d4;strokeColor=#82b366;" vertex="1" parent="1">
          <mxGeometry x="195" y="2450" width="47.69" height="34.44" as="geometry" />
        </mxCell>
        <mxCell id="flg8Zj_wZAHKv5EspBRr-187" value="null" style="rounded=0;whiteSpace=wrap;html=1;fillColor=#fff2cc;strokeColor=#d6b656;" vertex="1" parent="1">
          <mxGeometry x="480" y="2240" width="50" height="35.93" as="geometry" />
        </mxCell>
        <mxCell id="flg8Zj_wZAHKv5EspBRr-188" value="" style="edgeStyle=orthogonalEdgeStyle;rounded=0;orthogonalLoop=1;jettySize=auto;html=1;" edge="1" parent="1" source="flg8Zj_wZAHKv5EspBRr-180" target="flg8Zj_wZAHKv5EspBRr-187">
          <mxGeometry x="70" y="2150" as="geometry" />
        </mxCell>
        <mxCell id="flg8Zj_wZAHKv5EspBRr-189" value="" style="edgeStyle=orthogonalEdgeStyle;rounded=0;orthogonalLoop=1;jettySize=auto;html=1;" edge="1" parent="1" source="flg8Zj_wZAHKv5EspBRr-190" target="flg8Zj_wZAHKv5EspBRr-176">
          <mxGeometry relative="1" as="geometry" />
        </mxCell>
        <mxCell id="flg8Zj_wZAHKv5EspBRr-190" value="1" style="rounded=0;whiteSpace=wrap;html=1;fillColor=#f8cecc;strokeColor=#b85450;" vertex="1" parent="1">
          <mxGeometry x="190" y="2350" width="57.69" height="35.93" as="geometry" />
        </mxCell>
        <mxCell id="flg8Zj_wZAHKv5EspBRr-200" style="edgeStyle=orthogonalEdgeStyle;rounded=0;orthogonalLoop=1;jettySize=auto;html=1;exitX=1;exitY=0;exitDx=0;exitDy=0;entryX=0.186;entryY=0.835;entryDx=0;entryDy=0;entryPerimeter=0;" edge="1" parent="1" source="flg8Zj_wZAHKv5EspBRr-191" target="flg8Zj_wZAHKv5EspBRr-180">
          <mxGeometry relative="1" as="geometry" />
        </mxCell>
        <mxCell id="flg8Zj_wZAHKv5EspBRr-191" value="3" style="rounded=0;whiteSpace=wrap;html=1;fillColor=#f8cecc;strokeColor=#b85450;" vertex="1" parent="1">
          <mxGeometry x="290" y="2350" width="52.96" height="35.93" as="geometry" />
        </mxCell>
        <mxCell id="flg8Zj_wZAHKv5EspBRr-192" value="4" style="rounded=0;whiteSpace=wrap;html=1;fillColor=#f8cecc;strokeColor=#b85450;" vertex="1" parent="1">
          <mxGeometry x="390" y="2350" width="53.85" height="35.93" as="geometry" />
        </mxCell>
        <mxCell id="flg8Zj_wZAHKv5EspBRr-194" value="" style="edgeStyle=orthogonalEdgeStyle;rounded=0;orthogonalLoop=1;jettySize=auto;html=1;entryX=0.5;entryY=0;entryDx=0;entryDy=0;" edge="1" parent="1" source="flg8Zj_wZAHKv5EspBRr-195" target="flg8Zj_wZAHKv5EspBRr-192">
          <mxGeometry x="70" y="2260" as="geometry">
            <mxPoint x="316" y="2310" as="sourcePoint" />
          </mxGeometry>
        </mxCell>
        <mxCell id="flg8Zj_wZAHKv5EspBRr-195" value="l2" style="text;html=1;align=center;verticalAlign=middle;resizable=0;points=[];autosize=1;strokeColor=none;" vertex="1" parent="1">
          <mxGeometry x="406.92153846153843" y="2290" width="20" height="20" as="geometry" />
        </mxCell>
        <mxCell id="flg8Zj_wZAHKv5EspBRr-196" value="null" style="rounded=0;whiteSpace=wrap;html=1;fillColor=#f8cecc;strokeColor=#b85450;" vertex="1" parent="1">
          <mxGeometry x="480" y="2350" width="50" height="35.93" as="geometry" />
        </mxCell>
        <mxCell id="flg8Zj_wZAHKv5EspBRr-197" value="" style="edgeStyle=orthogonalEdgeStyle;rounded=0;orthogonalLoop=1;jettySize=auto;html=1;" edge="1" parent="1" source="flg8Zj_wZAHKv5EspBRr-192" target="flg8Zj_wZAHKv5EspBRr-196">
          <mxGeometry x="70" y="2260" as="geometry" />
        </mxCell>
        <mxCell id="flg8Zj_wZAHKv5EspBRr-198" value="l1.val &amp;lt; l2.val&amp;nbsp; &lt;font color=&quot;#ff0000&quot;&gt;true&lt;/font&gt;" style="text;html=1;align=center;verticalAlign=middle;resizable=0;points=[];autosize=1;strokeColor=none;" vertex="1" parent="1">
          <mxGeometry x="475" y="2444.44" width="110" height="20" as="geometry" />
        </mxCell>
        <mxCell id="flg8Zj_wZAHKv5EspBRr-199" value="l3.next = l1" style="text;html=1;align=center;verticalAlign=middle;resizable=0;points=[];autosize=1;strokeColor=none;" vertex="1" parent="1">
          <mxGeometry x="480" y="2464.44" width="70" height="20" as="geometry" />
        </mxCell>
        <mxCell id="flg8Zj_wZAHKv5EspBRr-203" value="" style="rounded=0;whiteSpace=wrap;html=1;fillColor=#dae8fc;strokeColor=#6c8ebf;" vertex="1" parent="1">
          <mxGeometry x="110" y="2570" width="510" height="340" as="geometry" />
        </mxCell>
        <mxCell id="flg8Zj_wZAHKv5EspBRr-204" value="1" style="rounded=0;whiteSpace=wrap;html=1;fillColor=#fff2cc;strokeColor=#d6b656;" vertex="1" parent="1">
          <mxGeometry x="190" y="2650" width="57.69" height="35.93" as="geometry" />
        </mxCell>
        <mxCell id="flg8Zj_wZAHKv5EspBRr-205" value="" style="edgeStyle=orthogonalEdgeStyle;rounded=0;orthogonalLoop=1;jettySize=auto;html=1;" edge="1" parent="1" source="flg8Zj_wZAHKv5EspBRr-206" target="flg8Zj_wZAHKv5EspBRr-220">
          <mxGeometry relative="1" as="geometry" />
        </mxCell>
        <mxCell id="flg8Zj_wZAHKv5EspBRr-206" value="2" style="rounded=0;whiteSpace=wrap;html=1;fillColor=#fff2cc;strokeColor=#d6b656;" vertex="1" parent="1">
          <mxGeometry x="290" y="2650" width="52.96" height="35.93" as="geometry" />
        </mxCell>
        <mxCell id="flg8Zj_wZAHKv5EspBRr-207" value="" style="edgeStyle=orthogonalEdgeStyle;rounded=0;orthogonalLoop=1;jettySize=auto;html=1;" edge="1" parent="1" source="flg8Zj_wZAHKv5EspBRr-204" target="flg8Zj_wZAHKv5EspBRr-206">
          <mxGeometry x="70" y="2560" as="geometry" />
        </mxCell>
        <mxCell id="flg8Zj_wZAHKv5EspBRr-228" value="" style="edgeStyle=orthogonalEdgeStyle;rounded=0;orthogonalLoop=1;jettySize=auto;html=1;" edge="1" parent="1" source="flg8Zj_wZAHKv5EspBRr-208" target="flg8Zj_wZAHKv5EspBRr-221">
          <mxGeometry relative="1" as="geometry" />
        </mxCell>
        <mxCell id="flg8Zj_wZAHKv5EspBRr-208" value="3" style="rounded=0;whiteSpace=wrap;html=1;fillColor=#fff2cc;strokeColor=#d6b656;" vertex="1" parent="1">
          <mxGeometry x="390" y="2650" width="53.85" height="35.93" as="geometry" />
        </mxCell>
        <mxCell id="flg8Zj_wZAHKv5EspBRr-209" value="" style="edgeStyle=orthogonalEdgeStyle;rounded=0;orthogonalLoop=1;jettySize=auto;html=1;entryX=0.5;entryY=0;entryDx=0;entryDy=0;exitX=0.55;exitY=1.2;exitDx=0;exitDy=0;exitPerimeter=0;" edge="1" parent="1" source="flg8Zj_wZAHKv5EspBRr-210" target="flg8Zj_wZAHKv5EspBRr-215">
          <mxGeometry x="70" y="2560" as="geometry">
            <mxPoint x="505" y="2600" as="sourcePoint" />
          </mxGeometry>
        </mxCell>
        <mxCell id="flg8Zj_wZAHKv5EspBRr-210" value="l1" style="text;html=1;align=center;verticalAlign=middle;resizable=0;points=[];autosize=1;strokeColor=none;" vertex="1" parent="1">
          <mxGeometry x="495.0015384615385" y="2590" width="20" height="20" as="geometry" />
        </mxCell>
        <mxCell id="flg8Zj_wZAHKv5EspBRr-211" value="" style="edgeStyle=orthogonalEdgeStyle;rounded=0;orthogonalLoop=1;jettySize=auto;html=1;entryX=0.5;entryY=1;entryDx=0;entryDy=0;" edge="1" parent="1" source="flg8Zj_wZAHKv5EspBRr-212" target="flg8Zj_wZAHKv5EspBRr-221">
          <mxGeometry relative="1" as="geometry">
            <mxPoint x="417" y="2650" as="targetPoint" />
          </mxGeometry>
        </mxCell>
        <mxCell id="flg8Zj_wZAHKv5EspBRr-212" value="l3" style="text;html=1;align=center;verticalAlign=middle;resizable=0;points=[];autosize=1;strokeColor=none;" vertex="1" parent="1">
          <mxGeometry x="406.9200000000001" y="2830.0003703703705" width="20" height="20" as="geometry" />
        </mxCell>
        <mxCell id="flg8Zj_wZAHKv5EspBRr-213" value="" style="edgeStyle=orthogonalEdgeStyle;rounded=0;orthogonalLoop=1;jettySize=auto;html=1;" edge="1" parent="1" source="flg8Zj_wZAHKv5EspBRr-214" target="flg8Zj_wZAHKv5EspBRr-218">
          <mxGeometry relative="1" as="geometry" />
        </mxCell>
        <mxCell id="flg8Zj_wZAHKv5EspBRr-214" value="1" style="whiteSpace=wrap;html=1;fillColor=#d5e8d4;strokeColor=#82b366;" vertex="1" parent="1">
          <mxGeometry x="195" y="2860" width="47.69" height="34.44" as="geometry" />
        </mxCell>
        <mxCell id="flg8Zj_wZAHKv5EspBRr-215" value="null" style="rounded=0;whiteSpace=wrap;html=1;fillColor=#fff2cc;strokeColor=#d6b656;" vertex="1" parent="1">
          <mxGeometry x="480" y="2650" width="50" height="35.93" as="geometry" />
        </mxCell>
        <mxCell id="flg8Zj_wZAHKv5EspBRr-217" value="" style="edgeStyle=orthogonalEdgeStyle;rounded=0;orthogonalLoop=1;jettySize=auto;html=1;" edge="1" parent="1" source="flg8Zj_wZAHKv5EspBRr-218" target="flg8Zj_wZAHKv5EspBRr-204">
          <mxGeometry relative="1" as="geometry" />
        </mxCell>
        <mxCell id="flg8Zj_wZAHKv5EspBRr-218" value="1" style="rounded=0;whiteSpace=wrap;html=1;fillColor=#f8cecc;strokeColor=#b85450;" vertex="1" parent="1">
          <mxGeometry x="190" y="2760" width="57.69" height="35.93" as="geometry" />
        </mxCell>
        <mxCell id="flg8Zj_wZAHKv5EspBRr-219" style="edgeStyle=orthogonalEdgeStyle;rounded=0;orthogonalLoop=1;jettySize=auto;html=1;exitX=1;exitY=0;exitDx=0;exitDy=0;entryX=0.186;entryY=0.835;entryDx=0;entryDy=0;entryPerimeter=0;" edge="1" parent="1" source="flg8Zj_wZAHKv5EspBRr-220" target="flg8Zj_wZAHKv5EspBRr-208">
          <mxGeometry relative="1" as="geometry" />
        </mxCell>
        <mxCell id="flg8Zj_wZAHKv5EspBRr-220" value="3" style="rounded=0;whiteSpace=wrap;html=1;fillColor=#f8cecc;strokeColor=#b85450;" vertex="1" parent="1">
          <mxGeometry x="290" y="2760" width="52.96" height="35.93" as="geometry" />
        </mxCell>
        <mxCell id="flg8Zj_wZAHKv5EspBRr-221" value="4" style="rounded=0;whiteSpace=wrap;html=1;fillColor=#f8cecc;strokeColor=#b85450;" vertex="1" parent="1">
          <mxGeometry x="390" y="2760" width="53.85" height="35.93" as="geometry" />
        </mxCell>
        <mxCell id="flg8Zj_wZAHKv5EspBRr-222" value="" style="edgeStyle=orthogonalEdgeStyle;rounded=0;orthogonalLoop=1;jettySize=auto;html=1;entryX=0.5;entryY=0;entryDx=0;entryDy=0;" edge="1" parent="1" source="flg8Zj_wZAHKv5EspBRr-223" target="flg8Zj_wZAHKv5EspBRr-224">
          <mxGeometry x="70" y="2670" as="geometry">
            <mxPoint x="316" y="2720" as="sourcePoint" />
          </mxGeometry>
        </mxCell>
        <mxCell id="flg8Zj_wZAHKv5EspBRr-223" value="l2" style="text;html=1;align=center;verticalAlign=middle;resizable=0;points=[];autosize=1;strokeColor=none;" vertex="1" parent="1">
          <mxGeometry x="495.0015384615384" y="2700" width="20" height="20" as="geometry" />
        </mxCell>
        <mxCell id="flg8Zj_wZAHKv5EspBRr-224" value="null" style="rounded=0;whiteSpace=wrap;html=1;fillColor=#f8cecc;strokeColor=#b85450;" vertex="1" parent="1">
          <mxGeometry x="480" y="2760" width="50" height="35.93" as="geometry" />
        </mxCell>
        <mxCell id="flg8Zj_wZAHKv5EspBRr-225" value="" style="edgeStyle=orthogonalEdgeStyle;rounded=0;orthogonalLoop=1;jettySize=auto;html=1;" edge="1" parent="1" source="flg8Zj_wZAHKv5EspBRr-221" target="flg8Zj_wZAHKv5EspBRr-224">
          <mxGeometry x="70" y="2670" as="geometry" />
        </mxCell>
        <mxCell id="flg8Zj_wZAHKv5EspBRr-226" value="l1 == null" style="text;html=1;align=center;verticalAlign=middle;resizable=0;points=[];autosize=1;strokeColor=none;" vertex="1" parent="1">
          <mxGeometry x="500" y="2854.44" width="60" height="20" as="geometry" />
        </mxCell>
        <mxCell id="flg8Zj_wZAHKv5EspBRr-227" value="l3.next = l2" style="text;html=1;align=center;verticalAlign=middle;resizable=0;points=[];autosize=1;strokeColor=none;" vertex="1" parent="1">
          <mxGeometry x="495" y="2874.44" width="70" height="20" as="geometry" />
        </mxCell>
        <mxCell id="flg8Zj_wZAHKv5EspBRr-232" value="Text" style="text;html=1;strokeColor=none;fillColor=none;align=center;verticalAlign=middle;whiteSpace=wrap;rounded=0;" vertex="1" parent="1">
          <mxGeometry x="2640" y="3110" width="40" height="20" as="geometry" />
        </mxCell>
      </root>
    </mxGraphModel>
  </diagram>
</mxfile>
